<?xml version="1.0" encoding="UTF-8" standalone="no"?>
<!-- Created with Inkscape (http://www.inkscape.org/) -->

<svg
   xmlns:dc="http://purl.org/dc/elements/1.1/"
   xmlns:cc="http://creativecommons.org/ns#"
   xmlns:rdf="http://www.w3.org/1999/02/22-rdf-syntax-ns#"
   xmlns:svg="http://www.w3.org/2000/svg"
   xmlns="http://www.w3.org/2000/svg"
   xmlns:sodipodi="http://sodipodi.sourceforge.net/DTD/sodipodi-0.dtd"
   xmlns:inkscape="http://www.inkscape.org/namespaces/inkscape"
   width="60mm"
   height="7.046813mm"
   viewBox="0 0 60 7.046813"
   version="1.1"
   id="svg3967"
   style="shape-rendering:crispEdges"
   inkscape:version="0.92.3 (2405546, 2018-03-11)"
   sodipodi:docname="logo.svg">
  <defs
     id="defs3961" />
  <sodipodi:namedview
     id="base"
     pagecolor="#ffffff"
     bordercolor="#666666"
     borderopacity="1.0"
     inkscape:pageopacity="0.0"
     inkscape:pageshadow="2"
     inkscape:zoom="1.979899"
     inkscape:cx="180.71579"
     inkscape:cy="0.64494795"
     inkscape:document-units="mm"
     inkscape:current-layer="layer1"
     showgrid="false"
     showborder="false"
     inkscape:pagecheckerboard="true"
     fit-margin-top="0"
     fit-margin-left="0"
     fit-margin-right="0"
     fit-margin-bottom="0"
     inkscape:window-width="1920"
     inkscape:window-height="1025"
     inkscape:window-x="0"
     inkscape:window-y="27"
     inkscape:window-maximized="1" />
  <metadata
     id="metadata3964">
    <rdf:RDF>
      <cc:Work
         rdf:about="">
        <dc:format>image/svg+xml</dc:format>
        <dc:type
           rdf:resource="http://purl.org/dc/dcmitype/StillImage" />
        <dc:title></dc:title>
      </cc:Work>
    </rdf:RDF>
  </metadata>
  <g
     inkscape:label="Layer 1"
     inkscape:groupmode="layer"
     id="layer1"
     transform="translate(-73.57121,-45.2468)">
    <g
       id="g3992"
       transform="matrix(1.2650258,0,0,1.2650258,-7.3265215,-35.4977)">
      <path
         class="fil1 str1"
         d="m 90.694235,68.395639 0.0037,0.96127 -6.709922,0.001 -0.0037,-0.96274 h 6.709921 z m 0.0037,-4.342664 0.0037,0.961265 -6.71002,0.0014 -0.0036,-0.962737 h 6.709922 z m -7.63e-4,2.20047 c 0,0.316007 0,0.632114 0,0.948124 -4.39427,0 -6.418931,0.003 -6.70992,10e-4 0,-0.3113 0.0017,-0.615536 0,-0.949497 2.236477,0 4.473542,0 6.70992,0 z"
         id="path111"
         inkscape:connector-curvature="0"
         style="clip-rule:evenodd;fill:#ce0700;fill-rule:nonzero;stroke:#ce0700;stroke-width:0.07623014;stroke-miterlimit:22.92560005;image-rendering:optimizeQuality;shape-rendering:geometricPrecision;text-rendering:geometricPrecision" />
      <path
         class="fil2 str2"
         d="m 69.865255,64.48004 c 0,1.625949 0,3.252489 0,4.878629 -0.320912,0 -0.641824,0 -0.962834,0 0,-0.73581 0,-1.47192 0,-2.20773 -1.317202,0 -2.634797,0 -3.952195,0 0,0.73581 0,1.47192 0,2.20773 -0.320814,0 -0.641726,0 -0.962639,0 v -4.943773 c 0.003,-0.240267 0.207009,-0.353484 0.332882,-0.354661 -0.466897,0 2.951686,0 5.150882,0 0.153147,8.83e-4 0.392335,0.198865 0.393806,0.419903 z m -4.915029,0.528411 c 0,0.395573 0,0.79144 0,1.187013 1.317398,0 2.634993,0 3.952195,0 0,-0.395573 0,-0.79144 0,-1.187013 -1.317202,0 -2.634797,0 -3.952195,0 z m 10.932403,4.350218 c -0.04277,0 -1.346536,-2.696799 -1.351932,-2.697976 -0.03738,0.03973 -2.3701,2.543066 -2.512749,2.697976 -0.103406,0 -0.844124,8e-4 -1.016304,0 0.0022,-1.77075 0.0048,-3.534938 0.0072,-5.305694 1.96e-4,0.0072 0.286378,0 0.919275,0 l 0.02168,4.067864 c 1.857485,-1.968543 4.025187,-4.274186 4.019987,-4.254564 0.062,0.04778 0.555686,0.443547 0.723353,0.57305 -0.324444,0.328172 -1.254609,1.297482 -1.413741,1.459361 0.207695,0.429224 1.406971,2.833763 1.723076,3.459883 -0.633583,0.002 -0.963325,0 -1.120004,0 z m 6.460726,0 c -1.365373,0 -2.616745,0 -3.982216,0 -0.186112,0 -0.316596,-0.17669 -0.316596,-0.33013 0,-1.29788 0,-3.34471 0,-4.642683 0.0039,-0.133918 0.2023,-0.332881 0.355153,-0.332881 1.701197,0 3.44311,0 3.933553,0 0.0014,0.299524 0.005,0.686954 0.0036,0.962736 -0.261655,3.92e-4 -2.947271,-0.0016 -3.351379,0 -0.0018,0.537339 -0.01207,3.337738 -0.01452,3.438208 1.124419,0.002 2.248936,0.005 3.373159,0.007 -0.0056,0.0819 -0.0033,0.59836 -8.73e-4,0.89759 z"
         id="path113"
         inkscape:connector-curvature="0"
         style="clip-rule:evenodd;fill:#fefefe;fill-rule:nonzero;stroke:#050507;stroke-width:0.07623014;stroke-miterlimit:22.92560005;image-rendering:optimizeQuality;shape-rendering:geometricPrecision;text-rendering:geometricPrecision" />
      <path
         class="fil2 str2"
         d="m 98.32647,69.358669 c -0.320911,0 -0.641922,0 -0.962734,0 0,-1.45004 0,-2.900275 0,-4.350218 -1.32211,0 -2.644609,0 -3.966716,0 0,1.449943 0,2.900178 0,4.350218 -0.320815,0 -0.641823,0 -0.962639,0 0,-0.29521 -0.0026,-4.79818 -0.0028,-4.954663 0.0035,-0.184738 0.20583,-0.351031 0.349854,-0.351031 h 5.1811 c 0.171492,0 0.363392,0.215543 0.363783,0.369083 0,1.645374 0,3.291241 0,4.936611 z m 4.74844,0 c -0.9698,0 -1.85248,0.002 -2.82238,0.002 -0.11429,0.003 -0.304524,-0.16394 -0.304524,-0.32562 -0.0024,-1.08812 0.0108,-2.941089 0.0083,-4.02911 -0.09399,0.0023 -0.255476,-0.002 -0.505455,-9.82e-4 0.0024,-0.308845 0.0024,-0.643394 0.0049,-0.952239 0.03865,0 4.835269,0 4.835269,0 0,0.304037 0,0.629757 0,0.933696 l -3.38757,0.04345 c -0.0134,0.937818 -0.006,3.203824 -0.0146,3.437124 1.42179,0 2.06243,-2.9e-4 2.17879,0.001 0.002,0.29668 0.005,0.59356 0.007,0.89034 z m 3.32244,-3.134165 c 1.34634,0 2.69278,0 4.03912,0 0,-0.721391 0,-1.442879 0,-2.164269 0.30148,0 0.60307,0 0.90475,0 0,1.266578 0,2.533548 0,3.800124 0,0.30895 0,0.9338 0,1.24264 0,0.13019 -0.10978,0.25597 -0.20995,0.25577 -1.89378,0 -3.78816,0 -5.68224,0 0.01,-1.1775 0.002,-0.87591 0.0218,-0.90475 1.65499,0 3.31047,0 4.96556,0 0,-0.41736 0,-0.83491 0,-1.25226 -1.81893,0 -4.98685,-0.0328 -4.61413,-0.0205 -0.18955,-0.0132 -0.37124,-0.19141 -0.37331,-0.392044 -0.006,-0.574915 -0.003,-0.858252 0,-2.728883 0.31611,0.0025 0.63231,0.0048 0.94832,0.0072 0,0.719036 0,1.43817 0,2.157107 z"
         id="path115"
         inkscape:connector-curvature="0"
         style="clip-rule:evenodd;fill:#fefefe;fill-rule:nonzero;stroke:#050507;stroke-width:0.07623014;stroke-miterlimit:22.92560005;image-rendering:optimizeQuality;shape-rendering:geometricPrecision;text-rendering:geometricPrecision" />
    </g>
  </g>
</svg>
